<svg xmlns="http://www.w3.org/2000/svg" width="1920" height="1080"><path d="M252,1260L130,1259L378,1268Z" fill="#7e8290" stroke="#7e8290" stroke-width="1.51"/><path d="M130,1259L5,1263L378,1268Z" fill="#838390" stroke="#838390" stroke-width="1.51"/><path d="M99,-188L366,-187L743,-194Z" fill="#def2c2" stroke="#def2c2" stroke-width="1.51"/><path d="M-32,-189L99,-188L743,-194Z" fill="#e8f6c1" stroke="#e8f6c1" stroke-width="1.51"/><path d="M524,-185L626,-186L743,-194Z" fill="#c4e7c4" stroke="#c4e7c4" stroke-width="1.51"/><path d="M366,-187L524,-185L743,-194Z" fill="#ceebc3" stroke="#ceebc3" stroke-width="1.51"/><path d="M524,1267L378,1268L1020,1271Z" fill="#547491" stroke="#547491" stroke-width="1.51"/><path d="M647,1266L524,1267L1020,1271Z" fill="#4b7192" stroke="#4b7192" stroke-width="1.51"/><path d="M1263,1248L1148,1253L1404,1258Z" fill="#205894" stroke="#205894" stroke-width="1.51"/><path d="M1148,1253L1020,1271L1404,1258Z" fill="#255c95" stroke="#255c95" stroke-width="1.51"/><path d="M1158,-185L1301,-180L1423,-180Z" fill="#a1c2c6" stroke="#a1c2c6" stroke-width="1.51"/><path d="M743,-194L1006,-189L1683,-191Z" fill="#a6cdc9" stroke="#a6cdc9" stroke-width="1.51"/><path d="M1158,-185L1423,-180L1683,-191Z" fill="#9fb5c2" stroke="#9fb5c2" stroke-width="1.51"/><path d="M1006,-189L1158,-185L1683,-191Z" fill="#a1c3c7" stroke="#a1c3c7" stroke-width="1.51"/><path d="M1423,-180L1556,-174L1683,-191Z" fill="#9da9bc" stroke="#9da9bc" stroke-width="1.51"/><path d="M1404,1258L1020,1271L1692,1265Z" fill="#1e4e8e" stroke="#1e4e8e" stroke-width="1.51"/><path d="M1683,-191L1806,-158L1926,-179Z" fill="#9b95b3" stroke="#9b95b3" stroke-width="1.51"/><path d="M1920,611L2046,733L2056,591Z" fill="#2b6298" stroke="#2b6298" stroke-width="1.51"/><path d="M2056,76L1946,83L2056,222Z" fill="#7a8193" stroke="#7a8193" stroke-width="1.51"/><path d="M1920,462L2056,591L2063,453Z" fill="#3c6d98" stroke="#3c6d98" stroke-width="1.51"/><path d="M2046,733L1953,844L2068,874Z" fill="#204f91" stroke="#204f91" stroke-width="1.51"/><path d="M2056,591L2046,733L2068,874Z" fill="#1f5893" stroke="#1f5893" stroke-width="1.51"/><path d="M1683,-191L1926,-179L2068,-190Z" fill="#9890ad" stroke="#9890ad" stroke-width="1.51"/><path d="M1926,-179L2046,-62L2068,-190Z" fill="#8e899c" stroke="#8e899c" stroke-width="1.51"/><path d="M2046,-62L2056,76L2068,-190Z" fill="#888590" stroke="#888590" stroke-width="1.51"/><path d="M1952,1129L1930,1236L2076,1139Z" fill="#1b2b7d" stroke="#1b2b7d" stroke-width="1.51"/><path d="M1930,1236L1812,1247L2080,1261Z" fill="#172876" stroke="#172876" stroke-width="1.51"/><path d="M1812,1247L1692,1265L2080,1261Z" fill="#1a2b7d" stroke="#1a2b7d" stroke-width="1.51"/><path d="M2076,1139L1930,1236L2080,1261Z" fill="#152772" stroke="#152772" stroke-width="1.51"/><path d="M1938,339L2063,453L2081,345Z" fill="#4d7395" stroke="#4d7395" stroke-width="1.51"/><path d="M2056,222L1938,339L2081,345Z" fill="#5b7794" stroke="#5b7794" stroke-width="1.51"/><path d="M2056,591L2068,874L2081,345Z" fill="#2c6393" stroke="#2c6393" stroke-width="1.51"/><path d="M2063,453L2056,591L2081,345Z" fill="#3f6c93" stroke="#3f6c93" stroke-width="1.51"/><path d="M2068,-190L2056,76L2081,345Z" fill="#7b818d" stroke="#7b818d" stroke-width="1.51"/><path d="M2056,76L2056,222L2081,345Z" fill="#697a8e" stroke="#697a8e" stroke-width="1.51"/><path d="M2068,874L1950,973L2085,998Z" fill="#1c3e88" stroke="#1c3e88" stroke-width="1.51"/><path d="M1952,1129L2076,1139L2085,998Z" fill="#1c3081" stroke="#1c3081" stroke-width="1.51"/><path d="M1950,973L1952,1129L2085,998Z" fill="#1e3788" stroke="#1e3788" stroke-width="1.51"/><path d="M2081,345L2068,874L2085,998Z" fill="#1d5690" stroke="#1d5690" stroke-width="1.51"/><path d="M2076,1139L2080,1261L2085,998Z" fill="#192a7a" stroke="#192a7a" stroke-width="1.51"/><path d="M2046,-62L1946,83L2056,76Z" fill="#838593" stroke="#838593" stroke-width="1.51"/><path d="M1946,83L1921,207L2056,222Z" fill="#778198" stroke="#778198" stroke-width="1.51"/><path d="M1941,-63L1946,83L2046,-62Z" fill="#8a8897" stroke="#8a8897" stroke-width="1.51"/><path d="M1926,-179L1941,-63L2046,-62Z" fill="#8f8a9d" stroke="#8f8a9d" stroke-width="1.51"/><path d="M1953,844L1950,973L2068,874Z" fill="#1f4690" stroke="#1f4690" stroke-width="1.51"/><path d="M1920,611L1923,740L2046,733Z" fill="#29609d" stroke="#29609d" stroke-width="1.51"/><path d="M1920,462L1920,611L2056,591Z" fill="#366c9e" stroke="#366c9e" stroke-width="1.51"/><path d="M1921,207L1938,339L2056,222Z" fill="#687c99" stroke="#687c99" stroke-width="1.51"/><path d="M1938,339L1920,462L2063,453Z" fill="#4b739b" stroke="#4b739b" stroke-width="1.51"/><path d="M1923,740L1953,844L2046,733Z" fill="#235799" stroke="#235799" stroke-width="1.51"/><path d="M1815,460L1794,597L1920,611Z" fill="#3d72ac" stroke="#3d72ac" stroke-width="1.51"/><path d="M1815,460L1920,611L1920,462Z" fill="#4173a7" stroke="#4173a7" stroke-width="1.51"/><path d="M1787,218L1790,343L1921,207Z" fill="#7084a8" stroke="#7084a8" stroke-width="1.51"/><path d="M1815,460L1920,462L1938,339Z" fill="#5077a5" stroke="#5077a5" stroke-width="1.51"/><path d="M1790,343L1815,460L1938,339Z" fill="#587ba9" stroke="#587ba9" stroke-width="1.51"/><path d="M1921,207L1790,343L1938,339Z" fill="#657ea3" stroke="#657ea3" stroke-width="1.51"/><path d="M1926,-179L1806,-158L1941,-63Z" fill="#968fa9" stroke="#968fa9" stroke-width="1.51"/><path d="M1806,-158L1811,-58L1941,-63Z" fill="#9890a9" stroke="#9890a9" stroke-width="1.51"/><path d="M1812,102L1921,207L1946,83Z" fill="#8287a1" stroke="#8287a1" stroke-width="1.51"/><path d="M1941,-63L1811,-58L1946,83Z" fill="#908ca0" stroke="#908ca0" stroke-width="1.51"/><path d="M1811,-58L1812,102L1946,83Z" fill="#8d8ca4" stroke="#8d8ca4" stroke-width="1.51"/><path d="M1801,884L1799,1007L1950,973Z" fill="#26469b" stroke="#26469b" stroke-width="1.51"/><path d="M1797,1143L1930,1236L1952,1129Z" fill="#1f2f87" stroke="#1f2f87" stroke-width="1.51"/><path d="M1950,973L1799,1007L1952,1129Z" fill="#233b92" stroke="#233b92" stroke-width="1.51"/><path d="M1799,1007L1797,1143L1952,1129Z" fill="#253794" stroke="#253794" stroke-width="1.51"/><path d="M1923,740L1808,742L1953,844Z" fill="#285aa1" stroke="#285aa1" stroke-width="1.51"/><path d="M1808,742L1801,884L1953,844Z" fill="#2956a2" stroke="#2956a2" stroke-width="1.51"/><path d="M1801,884L1950,973L1953,844Z" fill="#244a99" stroke="#244a99" stroke-width="1.51"/><path d="M1920,611L1808,742L1923,740Z" fill="#2d63a5" stroke="#2d63a5" stroke-width="1.51"/><path d="M1797,1143L1812,1247L1930,1236Z" fill="#1e2e86" stroke="#1e2e86" stroke-width="1.51"/><path d="M1794,597L1808,742L1920,611Z" fill="#356aab" stroke="#356aab" stroke-width="1.51"/><path d="M1812,102L1787,218L1921,207Z" fill="#7e88a6" stroke="#7e88a6" stroke-width="1.51"/><path d="M1560,1234L1404,1258L1692,1265Z" fill="#1b4089" stroke="#1b4089" stroke-width="1.51"/><path d="M1675,359L1686,465L1790,343Z" fill="#5685ad" stroke="#5685ad" stroke-width="1.51"/><path d="M1787,218L1670,225L1790,343Z" fill="#6f8aab" stroke="#6f8aab" stroke-width="1.51"/><path d="M1661,1103L1797,1143L1799,1007Z" fill="#263f99" stroke="#263f99" stroke-width="1.51"/><path d="M1667,744L1657,880L1801,884Z" fill="#275ea9" stroke="#275ea9" stroke-width="1.51"/><path d="M1672,974L1799,1007L1801,884Z" fill="#264d9f" stroke="#264d9f" stroke-width="1.51"/><path d="M1683,-191L1683,-25L1806,-158Z" fill="#9b9ab1" stroke="#9b9ab1" stroke-width="1.51"/><path d="M1794,597L1684,618L1808,742Z" fill="#336fae" stroke="#336fae" stroke-width="1.51"/><path d="M1684,618L1667,744L1808,742Z" fill="#2d6daf" stroke="#2d6daf" stroke-width="1.51"/><path d="M1667,744L1801,884L1808,742Z" fill="#2961a9" stroke="#2961a9" stroke-width="1.51"/><path d="M1806,-158L1683,-25L1811,-58Z" fill="#9896ac" stroke="#9896ac" stroke-width="1.51"/><path d="M1674,96L1787,218L1812,102Z" fill="#8490a9" stroke="#8490a9" stroke-width="1.51"/><path d="M1811,-58L1683,-25L1812,102Z" fill="#9294a9" stroke="#9294a9" stroke-width="1.51"/><path d="M1683,-25L1674,96L1812,102Z" fill="#8d96aa" stroke="#8d96aa" stroke-width="1.51"/><path d="M1797,1143L1692,1265L1812,1247Z" fill="#1f3388" stroke="#1f3388" stroke-width="1.51"/><path d="M1686,465L1794,597L1815,460Z" fill="#447baf" stroke="#447baf" stroke-width="1.51"/><path d="M1790,343L1686,465L1815,460Z" fill="#527fad" stroke="#527fad" stroke-width="1.51"/><path d="M1686,465L1684,618L1794,597Z" fill="#3b7ab0" stroke="#3b7ab0" stroke-width="1.51"/><path d="M1674,96L1670,225L1787,218Z" fill="#7e91ab" stroke="#7e91ab" stroke-width="1.51"/><path d="M1670,225L1675,359L1790,343Z" fill="#6589ad" stroke="#6589ad" stroke-width="1.51"/><path d="M1657,880L1672,974L1801,884Z" fill="#2655a4" stroke="#2655a4" stroke-width="1.51"/><path d="M1672,974L1661,1103L1799,1007Z" fill="#26489e" stroke="#26489e" stroke-width="1.51"/><path d="M1661,1103L1692,1265L1797,1143Z" fill="#223a91" stroke="#223a91" stroke-width="1.51"/><path d="M775,1251L647,1266L1020,1271Z" fill="#436e94" stroke="#436e94" stroke-width="1.51"/><path d="M1550,1126L1560,1234L1661,1103Z" fill="#244498" stroke="#244498" stroke-width="1.51"/><path d="M1555,857L1657,880L1667,744Z" fill="#2665ac" stroke="#2665ac" stroke-width="1.51"/><path d="M1531,979L1661,1103L1672,974Z" fill="#264fa1" stroke="#264fa1" stroke-width="1.51"/><path d="M1564,-47L1526,87L1674,96Z" fill="#8fa0ae" stroke="#8fa0ae" stroke-width="1.51"/><path d="M1530,193L1670,225L1674,96Z" fill="#8099ae" stroke="#8099ae" stroke-width="1.51"/><path d="M1670,225L1565,350L1675,359Z" fill="#648faf" stroke="#648faf" stroke-width="1.51"/><path d="M1565,350L1553,462L1675,359Z" fill="#548eb1" stroke="#548eb1" stroke-width="1.51"/><path d="M1564,-47L1674,96L1683,-25Z" fill="#939dac" stroke="#939dac" stroke-width="1.51"/><path d="M1564,-47L1683,-25L1683,-191Z" fill="#99a0b0" stroke="#99a0b0" stroke-width="1.51"/><path d="M1556,-174L1564,-47L1683,-191Z" fill="#9ba4b6" stroke="#9ba4b6" stroke-width="1.51"/><path d="M1553,734L1667,744L1684,618Z" fill="#2b74b2" stroke="#2b74b2" stroke-width="1.51"/><path d="M1534,608L1553,734L1684,618Z" fill="#2e7bb4" stroke="#2e7bb4" stroke-width="1.51"/><path d="M1553,462L1534,608L1684,618Z" fill="#3784b5" stroke="#3784b5" stroke-width="1.51"/><path d="M1553,462L1684,618L1686,465Z" fill="#4083b2" stroke="#4083b2" stroke-width="1.51"/><path d="M1675,359L1553,462L1686,465Z" fill="#4f88b1" stroke="#4f88b1" stroke-width="1.51"/><path d="M1661,1103L1560,1234L1692,1265Z" fill="#203e8f" stroke="#203e8f" stroke-width="1.51"/><path d="M1553,734L1555,857L1667,744Z" fill="#256eb0" stroke="#256eb0" stroke-width="1.51"/><path d="M1526,87L1530,193L1674,96Z" fill="#869eaf" stroke="#869eaf" stroke-width="1.51"/><path d="M1531,979L1550,1126L1661,1103Z" fill="#254da0" stroke="#254da0" stroke-width="1.51"/><path d="M1530,193L1565,350L1670,225Z" fill="#6f96b0" stroke="#6f96b0" stroke-width="1.51"/><path d="M1657,880L1531,979L1672,974Z" fill="#2457a5" stroke="#2457a5" stroke-width="1.51"/><path d="M1555,857L1531,979L1657,880Z" fill="#245ea9" stroke="#245ea9" stroke-width="1.51"/><path d="M1406,463L1412,602L1534,608Z" fill="#3590ba" stroke="#3590ba" stroke-width="1.51"/><path d="M1531,979L1412,1014L1550,1126Z" fill="#2656a5" stroke="#2656a5" stroke-width="1.51"/><path d="M1412,1014L1419,1115L1550,1126Z" fill="#2755a4" stroke="#2755a4" stroke-width="1.51"/><path d="M1406,463L1534,608L1553,462Z" fill="#3e8fb8" stroke="#3e8fb8" stroke-width="1.51"/><path d="M1413,325L1406,463L1553,462Z" fill="#4f97b7" stroke="#4f97b7" stroke-width="1.51"/><path d="M1534,608L1431,721L1553,734Z" fill="#297fb6" stroke="#297fb6" stroke-width="1.51"/><path d="M1420,878L1531,979L1555,857Z" fill="#2365ab" stroke="#2365ab" stroke-width="1.51"/><path d="M1553,734L1431,721L1555,857Z" fill="#2375b4" stroke="#2375b4" stroke-width="1.51"/><path d="M1431,721L1420,878L1555,857Z" fill="#2373b2" stroke="#2373b2" stroke-width="1.51"/><path d="M1423,-180L1426,-41L1556,-174Z" fill="#9cb0ba" stroke="#9cb0ba" stroke-width="1.51"/><path d="M1550,1126L1419,1115L1560,1234Z" fill="#244a9a" stroke="#244a9a" stroke-width="1.51"/><path d="M1419,1115L1404,1258L1560,1234Z" fill="#224b95" stroke="#224b95" stroke-width="1.51"/><path d="M1556,-174L1426,-41L1564,-47Z" fill="#9aabb4" stroke="#9aabb4" stroke-width="1.51"/><path d="M1426,-41L1526,87L1564,-47Z" fill="#94a9b1" stroke="#94a9b1" stroke-width="1.51"/><path d="M1413,325L1553,462L1565,350Z" fill="#5695b5" stroke="#5695b5" stroke-width="1.51"/><path d="M1530,193L1413,325L1565,350Z" fill="#689bb3" stroke="#689bb3" stroke-width="1.51"/><path d="M1426,-41L1422,77L1526,87Z" fill="#90acb3" stroke="#90acb3" stroke-width="1.51"/><path d="M1400,195L1413,325L1530,193Z" fill="#74a3b5" stroke="#74a3b5" stroke-width="1.51"/><path d="M1526,87L1422,77L1530,193Z" fill="#87a6b2" stroke="#87a6b2" stroke-width="1.51"/><path d="M1422,77L1400,195L1530,193Z" fill="#84a8b4" stroke="#84a8b4" stroke-width="1.51"/><path d="M1420,878L1412,1014L1531,979Z" fill="#2463aa" stroke="#2463aa" stroke-width="1.51"/><path d="M1412,602L1431,721L1534,608Z" fill="#2d87b9" stroke="#2d87b9" stroke-width="1.51"/><path d="M909,1249L775,1251L1020,1271Z" fill="#3b6c96" stroke="#3b6c96" stroke-width="1.51"/><path d="M1273,1122L1263,1248L1404,1258Z" fill="#24579a" stroke="#24579a" stroke-width="1.51"/><path d="M1276,345L1289,461L1406,463Z" fill="#4ea3bd" stroke="#4ea3bd" stroke-width="1.51"/><path d="M1406,463L1289,461L1412,602Z" fill="#3d9abd" stroke="#3d9abd" stroke-width="1.51"/><path d="M1289,461L1266,595L1412,602Z" fill="#339cbf" stroke="#339cbf" stroke-width="1.51"/><path d="M1400,195L1275,227L1413,325Z" fill="#72abb9" stroke="#72abb9" stroke-width="1.51"/><path d="M1276,345L1406,463L1413,325Z" fill="#56a2bb" stroke="#56a2bb" stroke-width="1.51"/><path d="M1412,1014L1273,1122L1419,1115Z" fill="#295da8" stroke="#295da8" stroke-width="1.51"/><path d="M1273,1122L1404,1258L1419,1115Z" fill="#27569f" stroke="#27569f" stroke-width="1.51"/><path d="M1298,987L1412,1014L1420,878Z" fill="#2569ae" stroke="#2569ae" stroke-width="1.51"/><path d="M1305,872L1298,987L1420,878Z" fill="#2472b2" stroke="#2472b2" stroke-width="1.51"/><path d="M1302,728L1305,872L1420,878Z" fill="#237db7" stroke="#237db7" stroke-width="1.51"/><path d="M1296,82L1400,195L1422,77Z" fill="#89b1b7" stroke="#89b1b7" stroke-width="1.51"/><path d="M1296,82L1422,77L1426,-41Z" fill="#92b4b6" stroke="#92b4b6" stroke-width="1.51"/><path d="M1288,-45L1296,82L1426,-41Z" fill="#97b9b8" stroke="#97b9b8" stroke-width="1.51"/><path d="M1423,-180L1301,-180L1426,-41Z" fill="#9eb8be" stroke="#9eb8be" stroke-width="1.51"/><path d="M1301,-180L1288,-45L1426,-41Z" fill="#9dbcbb" stroke="#9dbcbb" stroke-width="1.51"/><path d="M1302,728L1420,878L1431,721Z" fill="#2280b8" stroke="#2280b8" stroke-width="1.51"/><path d="M1412,602L1302,728L1431,721Z" fill="#288abb" stroke="#288abb" stroke-width="1.51"/><path d="M1298,987L1273,1122L1412,1014Z" fill="#2865ac" stroke="#2865ac" stroke-width="1.51"/><path d="M1266,595L1302,728L1412,602Z" fill="#2b93be" stroke="#2b93be" stroke-width="1.51"/><path d="M1275,227L1276,345L1413,325Z" fill="#66abba" stroke="#66abba" stroke-width="1.51"/><path d="M1296,82L1275,227L1400,195Z" fill="#83b3b9" stroke="#83b3b9" stroke-width="1.51"/><path d="M1163,94L1153,209L1275,227Z" fill="#83bdbc" stroke="#83bdbc" stroke-width="1.51"/><path d="M1142,-42L1163,94L1288,-45Z" fill="#99c5bb" stroke="#99c5bb" stroke-width="1.51"/><path d="M1158,-185L1142,-42L1288,-45Z" fill="#a0c8bf" stroke="#a0c8bf" stroke-width="1.51"/><path d="M1159,469L1266,595L1289,461Z" fill="#3ca6c2" stroke="#3ca6c2" stroke-width="1.51"/><path d="M1276,345L1169,342L1289,461Z" fill="#54acbf" stroke="#54acbf" stroke-width="1.51"/><path d="M1169,342L1159,469L1289,461Z" fill="#4fadc0" stroke="#4fadc0" stroke-width="1.51"/><path d="M1288,-45L1163,94L1296,82Z" fill="#93bfbb" stroke="#93bfbb" stroke-width="1.51"/><path d="M1163,94L1275,227L1296,82Z" fill="#89bdbb" stroke="#89bdbb" stroke-width="1.51"/><path d="M1176,975L1273,1122L1298,987Z" fill="#296daf" stroke="#296daf" stroke-width="1.51"/><path d="M1158,-185L1288,-45L1301,-180Z" fill="#a0c4c3" stroke="#a0c4c3" stroke-width="1.51"/><path d="M1266,595L1155,729L1302,728Z" fill="#2596c1" stroke="#2596c1" stroke-width="1.51"/><path d="M1155,729L1148,846L1302,728Z" fill="#238fbf" stroke="#238fbf" stroke-width="1.51"/><path d="M1176,975L1298,987L1305,872Z" fill="#2475b3" stroke="#2475b3" stroke-width="1.51"/><path d="M1148,846L1176,975L1305,872Z" fill="#267eb7" stroke="#267eb7" stroke-width="1.51"/><path d="M1302,728L1148,846L1305,872Z" fill="#2186bb" stroke="#2186bb" stroke-width="1.51"/><path d="M1176,975L1158,1124L1273,1122Z" fill="#2e6aad" stroke="#2e6aad" stroke-width="1.51"/><path d="M1275,227L1169,342L1276,345Z" fill="#65b2be" stroke="#65b2be" stroke-width="1.51"/><path d="M1158,1124L1263,1248L1273,1122Z" fill="#2a61a3" stroke="#2a61a3" stroke-width="1.51"/><path d="M99,-188L233,-179L366,-187Z" fill="#eaf7c0" stroke="#eaf7c0" stroke-width="1.51"/><path d="M1138,592L1155,729L1266,595Z" fill="#2d9ec2" stroke="#2d9ec2" stroke-width="1.51"/><path d="M1158,1124L1148,1253L1263,1248Z" fill="#2a609d" stroke="#2a609d" stroke-width="1.51"/><path d="M1159,469L1138,592L1266,595Z" fill="#35a6c3" stroke="#35a6c3" stroke-width="1.51"/><path d="M1153,209L1169,342L1275,227Z" fill="#71b8bd" stroke="#71b8bd" stroke-width="1.51"/><path d="M1007,226L1027,339L1153,209Z" fill="#76c1be" stroke="#76c1be" stroke-width="1.51"/><path d="M1138,592L1018,599L1155,729Z" fill="#33a3c2" stroke="#33a3c2" stroke-width="1.51"/><path d="M1018,599L1036,752L1155,729Z" fill="#30a0c2" stroke="#30a0c2" stroke-width="1.51"/><path d="M1036,752L1148,846L1155,729Z" fill="#2b94bf" stroke="#2b94bf" stroke-width="1.51"/><path d="M1033,-41L1142,-42L1158,-185Z" fill="#a3cdbf" stroke="#a3cdbf" stroke-width="1.51"/><path d="M1006,-189L1033,-41L1158,-185Z" fill="#a6d1c4" stroke="#a6d1c4" stroke-width="1.51"/><path d="M1044,1128L1148,1253L1158,1124Z" fill="#3267a4" stroke="#3267a4" stroke-width="1.51"/><path d="M1043,976L1044,1128L1158,1124Z" fill="#3672ae" stroke="#3672ae" stroke-width="1.51"/><path d="M1027,488L1138,592L1159,469Z" fill="#40aec3" stroke="#40aec3" stroke-width="1.51"/><path d="M1027,339L1027,488L1159,469Z" fill="#53b5c1" stroke="#53b5c1" stroke-width="1.51"/><path d="M1031,87L1153,209L1163,94Z" fill="#8dc6bc" stroke="#8dc6bc" stroke-width="1.51"/><path d="M1142,-42L1031,87L1163,94Z" fill="#97c9bb" stroke="#97c9bb" stroke-width="1.51"/><path d="M1027,339L1159,469L1169,342Z" fill="#59b5c0" stroke="#59b5c0" stroke-width="1.51"/><path d="M1153,209L1027,339L1169,342Z" fill="#6bbbbe" stroke="#6bbbbe" stroke-width="1.51"/><path d="M1043,976L1158,1124L1176,975Z" fill="#3275b0" stroke="#3275b0" stroke-width="1.51"/><path d="M1148,846L1043,976L1176,975Z" fill="#2d7fb5" stroke="#2d7fb5" stroke-width="1.51"/><path d="M1033,-41L1031,87L1142,-42Z" fill="#9dcdbc" stroke="#9dcdbc" stroke-width="1.51"/><path d="M1014,868L1043,976L1148,846Z" fill="#3187b8" stroke="#3187b8" stroke-width="1.51"/><path d="M743,-194L892,-160L1006,-189Z" fill="#b1dcc8" stroke="#b1dcc8" stroke-width="1.51"/><path d="M1031,87L1007,226L1153,209Z" fill="#88c7bd" stroke="#88c7bd" stroke-width="1.51"/><path d="M1044,1128L1020,1271L1148,1253Z" fill="#30669d" stroke="#30669d" stroke-width="1.51"/><path d="M1027,488L1018,599L1138,592Z" fill="#3badc4" stroke="#3badc4" stroke-width="1.51"/><path d="M1036,752L1014,868L1148,846Z" fill="#2f91bc" stroke="#2f91bc" stroke-width="1.51"/><path d="M892,-160L906,-53L1006,-189Z" fill="#abd9c4" stroke="#abd9c4" stroke-width="1.51"/><path d="M890,879L891,994L1014,868Z" fill="#3c8cb7" stroke="#3c8cb7" stroke-width="1.51"/><path d="M880,719L890,879L1014,868Z" fill="#3b98bc" stroke="#3b98bc" stroke-width="1.51"/><path d="M1007,226L915,345L1027,339Z" fill="#6ec3bf" stroke="#6ec3bf" stroke-width="1.51"/><path d="M915,345L904,459L1027,339Z" fill="#60c0c1" stroke="#60c0c1" stroke-width="1.51"/><path d="M1027,339L904,459L1027,488Z" fill="#56bbc2" stroke="#56bbc2" stroke-width="1.51"/><path d="M913,206L1007,226L1031,87Z" fill="#8accbd" stroke="#8accbd" stroke-width="1.51"/><path d="M1006,-189L906,-53L1033,-41Z" fill="#a7d6c0" stroke="#a7d6c0" stroke-width="1.51"/><path d="M884,72L1031,87L1033,-41Z" fill="#9cd2bc" stroke="#9cd2bc" stroke-width="1.51"/><path d="M906,-53L884,72L1033,-41Z" fill="#a3d6bb" stroke="#a3d6bb" stroke-width="1.51"/><path d="M1018,599L880,719L1036,752Z" fill="#35a6c3" stroke="#35a6c3" stroke-width="1.51"/><path d="M880,719L1014,868L1036,752Z" fill="#349cc0" stroke="#349cc0" stroke-width="1.51"/><path d="M1014,868L891,994L1043,976Z" fill="#3786b5" stroke="#3786b5" stroke-width="1.51"/><path d="M891,994L902,1110L1043,976Z" fill="#3e7fb1" stroke="#3e7fb1" stroke-width="1.51"/><path d="M909,1249L1020,1271L1044,1128Z" fill="#356b9d" stroke="#356b9d" stroke-width="1.51"/><path d="M902,1110L909,1249L1044,1128Z" fill="#3d71a6" stroke="#3d71a6" stroke-width="1.51"/><path d="M1043,976L902,1110L1044,1128Z" fill="#3b77af" stroke="#3b77af" stroke-width="1.51"/><path d="M884,599L880,719L1018,599Z" fill="#3faec3" stroke="#3faec3" stroke-width="1.51"/><path d="M884,599L1018,599L1027,488Z" fill="#3fb3c4" stroke="#3fb3c4" stroke-width="1.51"/><path d="M904,459L884,599L1027,488Z" fill="#49b8c3" stroke="#49b8c3" stroke-width="1.51"/><path d="M884,72L913,206L1031,87Z" fill="#94d1bc" stroke="#94d1bc" stroke-width="1.51"/><path d="M913,206L915,345L1007,226Z" fill="#7ac8be" stroke="#7ac8be" stroke-width="1.51"/><path d="M880,719L784,874L890,879Z" fill="#469bbb" stroke="#469bbb" stroke-width="1.51"/><path d="M762,1121L775,1251L902,1110Z" fill="#4d76a5" stroke="#4d76a5" stroke-width="1.51"/><path d="M891,994L758,1011L902,1110Z" fill="#4a81b0" stroke="#4a81b0" stroke-width="1.51"/><path d="M758,1011L762,1121L902,1110Z" fill="#507ead" stroke="#507ead" stroke-width="1.51"/><path d="M763,359L774,454L904,459Z" fill="#67c2c0" stroke="#67c2c0" stroke-width="1.51"/><path d="M771,583L884,599L904,459Z" fill="#4fb9c3" stroke="#4fb9c3" stroke-width="1.51"/><path d="M774,454L771,583L904,459Z" fill="#5bbec1" stroke="#5bbec1" stroke-width="1.51"/><path d="M892,-160L756,-27L906,-53Z" fill="#afdbbd" stroke="#afdbbd" stroke-width="1.51"/><path d="M756,-27L884,72L906,-53Z" fill="#a9daba" stroke="#a9daba" stroke-width="1.51"/><path d="M902,1110L775,1251L909,1249Z" fill="#43729e" stroke="#43729e" stroke-width="1.51"/><path d="M884,72L769,64L913,206Z" fill="#9cd5bb" stroke="#9cd5bb" stroke-width="1.51"/><path d="M769,64L744,233L913,206Z" fill="#97d4ba" stroke="#97d4ba" stroke-width="1.51"/><path d="M763,359L904,459L915,345Z" fill="#68c3bf" stroke="#68c3bf" stroke-width="1.51"/><path d="M913,206L744,233L915,345Z" fill="#81cbbd" stroke="#81cbbd" stroke-width="1.51"/><path d="M744,233L763,359L915,345Z" fill="#7acabd" stroke="#7acabd" stroke-width="1.51"/><path d="M756,-27L769,64L884,72Z" fill="#a8dab9" stroke="#a8dab9" stroke-width="1.51"/><path d="M890,879L784,874L891,994Z" fill="#468fb6" stroke="#468fb6" stroke-width="1.51"/><path d="M744,723L784,874L880,719Z" fill="#4ba4bd" stroke="#4ba4bd" stroke-width="1.51"/><path d="M771,583L880,719L884,599Z" fill="#4bb1c2" stroke="#4bb1c2" stroke-width="1.51"/><path d="M784,874L758,1011L891,994Z" fill="#4c8bb3" stroke="#4c8bb3" stroke-width="1.51"/><path d="M743,-194L756,-27L892,-160Z" fill="#b5dfc1" stroke="#b5dfc1" stroke-width="1.51"/><path d="M771,583L744,723L880,719Z" fill="#4fafc0" stroke="#4fafc0" stroke-width="1.51"/><path d="M626,86L615,212L744,233Z" fill="#a1d9b8" stroke="#a1d9b8" stroke-width="1.51"/><path d="M743,-194L653,-57L756,-27Z" fill="#b8e1bc" stroke="#b8e1bc" stroke-width="1.51"/><path d="M613,1145L647,1266L762,1121Z" fill="#587aa0" stroke="#587aa0" stroke-width="1.51"/><path d="M626,86L744,233L769,64Z" fill="#a4dab8" stroke="#a4dab8" stroke-width="1.51"/><path d="M648,590L744,723L771,583Z" fill="#5ab6c0" stroke="#5ab6c0" stroke-width="1.51"/><path d="M648,590L771,583L774,454Z" fill="#5ebfc1" stroke="#5ebfc1" stroke-width="1.51"/><path d="M620,460L648,590L774,454Z" fill="#69c3bf" stroke="#69c3bf" stroke-width="1.51"/><path d="M762,1121L647,1266L775,1251Z" fill="#50759b" stroke="#50759b" stroke-width="1.51"/><path d="M744,723L653,752L784,874Z" fill="#54a5bc" stroke="#54a5bc" stroke-width="1.51"/><path d="M653,752L636,870L784,874Z" fill="#59a0b9" stroke="#59a0b9" stroke-width="1.51"/><path d="M643,977L758,1011L784,874Z" fill="#568fb2" stroke="#568fb2" stroke-width="1.51"/><path d="M636,870L643,977L784,874Z" fill="#5996b4" stroke="#5996b4" stroke-width="1.51"/><path d="M758,1011L643,977L762,1121Z" fill="#5886ae" stroke="#5886ae" stroke-width="1.51"/><path d="M643,977L613,1145L762,1121Z" fill="#5d83ab" stroke="#5d83ab" stroke-width="1.51"/><path d="M744,233L621,349L763,359Z" fill="#82cdbb" stroke="#82cdbb" stroke-width="1.51"/><path d="M621,349L620,460L763,359Z" fill="#7acabc" stroke="#7acabc" stroke-width="1.51"/><path d="M756,-27L626,86L769,64Z" fill="#adddb8" stroke="#adddb8" stroke-width="1.51"/><path d="M763,359L620,460L774,454Z" fill="#70c6be" stroke="#70c6be" stroke-width="1.51"/><path d="M626,-186L653,-57L743,-194Z" fill="#bde4c1" stroke="#bde4c1" stroke-width="1.51"/><path d="M653,-57L626,86L756,-27Z" fill="#b4e0b7" stroke="#b4e0b7" stroke-width="1.51"/><path d="M648,590L653,752L744,723Z" fill="#5cb3be" stroke="#5cb3be" stroke-width="1.51"/><path d="M615,212L621,349L744,233Z" fill="#91d3ba" stroke="#91d3ba" stroke-width="1.51"/><path d="M501,990L505,1119L613,1145Z" fill="#6f87aa" stroke="#6f87aa" stroke-width="1.51"/><path d="M615,212L511,338L621,349Z" fill="#94d4ba" stroke="#94d4ba" stroke-width="1.51"/><path d="M501,990L613,1145L643,977Z" fill="#698bac" stroke="#698bac" stroke-width="1.51"/><path d="M636,870L524,861L643,977Z" fill="#659ab4" stroke="#659ab4" stroke-width="1.51"/><path d="M524,861L501,990L643,977Z" fill="#6c97b1" stroke="#6c97b1" stroke-width="1.51"/><path d="M613,1145L524,1267L647,1266Z" fill="#5f7997" stroke="#5f7997" stroke-width="1.51"/><path d="M620,460L523,489L648,590Z" fill="#73c6be" stroke="#73c6be" stroke-width="1.51"/><path d="M523,489L508,601L648,590Z" fill="#75c4bf" stroke="#75c4bf" stroke-width="1.51"/><path d="M508,601L521,736L648,590Z" fill="#71bcbe" stroke="#71bcbe" stroke-width="1.51"/><path d="M506,-46L626,86L653,-57Z" fill="#bee4b6" stroke="#bee4b6" stroke-width="1.51"/><path d="M626,-186L524,-185L653,-57Z" fill="#c5e8c0" stroke="#c5e8c0" stroke-width="1.51"/><path d="M524,-185L506,-46L653,-57Z" fill="#c8e8ba" stroke="#c8e8ba" stroke-width="1.51"/><path d="M524,861L636,870L653,752Z" fill="#65a4b8" stroke="#65a4b8" stroke-width="1.51"/><path d="M521,736L524,861L653,752Z" fill="#6bacba" stroke="#6bacba" stroke-width="1.51"/><path d="M648,590L521,736L653,752Z" fill="#67b5be" stroke="#67b5be" stroke-width="1.51"/><path d="M498,84L615,212L626,86Z" fill="#b2e0b7" stroke="#b2e0b7" stroke-width="1.51"/><path d="M506,-46L498,84L626,86Z" fill="#bfe5b5" stroke="#bfe5b5" stroke-width="1.51"/><path d="M498,84L494,209L615,212Z" fill="#b2e0b7" stroke="#b2e0b7" stroke-width="1.51"/><path d="M511,338L523,489L620,460Z" fill="#85cdbc" stroke="#85cdbc" stroke-width="1.51"/><path d="M511,338L620,460L621,349Z" fill="#86cfbb" stroke="#86cfbb" stroke-width="1.51"/><path d="M505,1119L524,1267L613,1145Z" fill="#697f9f" stroke="#697f9f" stroke-width="1.51"/><path d="M494,209L511,338L615,212Z" fill="#a2d9b8" stroke="#a2d9b8" stroke-width="1.51"/><path d="M375,995L371,1105L501,990Z" fill="#7f93ac" stroke="#7f93ac" stroke-width="1.51"/><path d="M381,860L375,995L501,990Z" fill="#7e9caf" stroke="#7e9caf" stroke-width="1.51"/><path d="M501,990L371,1105L505,1119Z" fill="#798caa" stroke="#798caa" stroke-width="1.51"/><path d="M371,1105L378,1268L505,1119Z" fill="#7a85a1" stroke="#7a85a1" stroke-width="1.51"/><path d="M369,-41L498,84L506,-46Z" fill="#cdebb4" stroke="#cdebb4" stroke-width="1.51"/><path d="M366,-187L369,-41L506,-46Z" fill="#d8f0b8" stroke="#d8f0b8" stroke-width="1.51"/><path d="M380,585L359,747L508,601Z" fill="#85c3bc" stroke="#85c3bc" stroke-width="1.51"/><path d="M494,209L387,218L511,338Z" fill="#abddb7" stroke="#abddb7" stroke-width="1.51"/><path d="M387,218L377,348L511,338Z" fill="#a7dbb8" stroke="#a7dbb8" stroke-width="1.51"/><path d="M377,348L377,460L511,338Z" fill="#9bd7b9" stroke="#9bd7b9" stroke-width="1.51"/><path d="M508,601L359,747L521,736Z" fill="#7dbcbc" stroke="#7dbcbc" stroke-width="1.51"/><path d="M359,747L381,860L521,736Z" fill="#80b3b9" stroke="#80b3b9" stroke-width="1.51"/><path d="M380,585L508,601L523,489Z" fill="#82c9bd" stroke="#82c9bd" stroke-width="1.51"/><path d="M377,460L380,585L523,489Z" fill="#8ccebc" stroke="#8ccebc" stroke-width="1.51"/><path d="M511,338L377,460L523,489Z" fill="#90d1bb" stroke="#90d1bb" stroke-width="1.51"/><path d="M366,-187L506,-46L524,-185Z" fill="#d4eebd" stroke="#d4eebd" stroke-width="1.51"/><path d="M521,736L381,860L524,861Z" fill="#78abb8" stroke="#78abb8" stroke-width="1.51"/><path d="M381,860L501,990L524,861Z" fill="#78a0b2" stroke="#78a0b2" stroke-width="1.51"/><path d="M505,1119L378,1268L524,1267Z" fill="#6f7f98" stroke="#6f7f98" stroke-width="1.51"/><path d="M359,102L387,218L494,209Z" fill="#bee5b5" stroke="#bee5b5" stroke-width="1.51"/><path d="M359,102L494,209L498,84Z" fill="#c1e6b5" stroke="#c1e6b5" stroke-width="1.51"/><path d="M369,-41L359,102L498,84Z" fill="#cdebb4" stroke="#cdebb4" stroke-width="1.51"/><path d="M235,626L241,740L359,747Z" fill="#90c1bb" stroke="#90c1bb" stroke-width="1.51"/><path d="M248,88L359,102L369,-41Z" fill="#d5efb4" stroke="#d5efb4" stroke-width="1.51"/><path d="M236,-36L248,88L369,-41Z" fill="#dcf1b3" stroke="#dcf1b3" stroke-width="1.51"/><path d="M366,-187L233,-179L369,-41Z" fill="#e2f4bb" stroke="#e2f4bb" stroke-width="1.51"/><path d="M233,-179L236,-36L369,-41Z" fill="#e3f4b6" stroke="#e3f4b6" stroke-width="1.51"/><path d="M264,986L371,1105L375,995Z" fill="#8696ab" stroke="#8696ab" stroke-width="1.51"/><path d="M258,196L227,352L377,348Z" fill="#b4e0b6" stroke="#b4e0b6" stroke-width="1.51"/><path d="M245,475L377,460L377,348Z" fill="#a0d7ba" stroke="#a0d7ba" stroke-width="1.51"/><path d="M227,352L245,475L377,348Z" fill="#a7dab8" stroke="#a7dab8" stroke-width="1.51"/><path d="M371,1105L247,1128L378,1268Z" fill="#8287a0" stroke="#8287a0" stroke-width="1.51"/><path d="M247,1128L252,1260L378,1268Z" fill="#7f8497" stroke="#7f8497" stroke-width="1.51"/><path d="M235,626L359,747L380,585Z" fill="#8fc5bc" stroke="#8fc5bc" stroke-width="1.51"/><path d="M377,460L245,475L380,585Z" fill="#96d2bc" stroke="#96d2bc" stroke-width="1.51"/><path d="M359,747L248,861L381,860Z" fill="#89b0b6" stroke="#89b0b6" stroke-width="1.51"/><path d="M264,986L375,995L381,860Z" fill="#869faf" stroke="#869faf" stroke-width="1.51"/><path d="M248,861L264,986L381,860Z" fill="#8aa6b1" stroke="#8aa6b1" stroke-width="1.51"/><path d="M258,196L377,348L387,218Z" fill="#b8e2b6" stroke="#b8e2b6" stroke-width="1.51"/><path d="M359,102L258,196L387,218Z" fill="#c6e8b5" stroke="#c6e8b5" stroke-width="1.51"/><path d="M264,986L247,1128L371,1105Z" fill="#8991a9" stroke="#8991a9" stroke-width="1.51"/><path d="M245,475L235,626L380,585Z" fill="#96d0bc" stroke="#96d0bc" stroke-width="1.51"/><path d="M241,740L248,861L359,747Z" fill="#8db7b8" stroke="#8db7b8" stroke-width="1.51"/><path d="M248,88L258,196L359,102Z" fill="#cfecb4" stroke="#cfecb4" stroke-width="1.51"/><path d="M233,-179L135,-25L236,-36Z" fill="#e7f6b5" stroke="#e7f6b5" stroke-width="1.51"/><path d="M227,352L127,363L245,475Z" fill="#acdcb8" stroke="#acdcb8" stroke-width="1.51"/><path d="M111,603L235,626L245,475Z" fill="#9cd1bb" stroke="#9cd1bb" stroke-width="1.51"/><path d="M112,477L111,603L245,475Z" fill="#a3d6bb" stroke="#a3d6bb" stroke-width="1.51"/><path d="M122,1114L130,1259L247,1128Z" fill="#8d8ba0" stroke="#8d8ba0" stroke-width="1.51"/><path d="M241,740L119,847L248,861Z" fill="#93b5b6" stroke="#93b5b6" stroke-width="1.51"/><path d="M119,847L120,983L248,861Z" fill="#94a9b1" stroke="#94a9b1" stroke-width="1.51"/><path d="M236,-36L135,-25L248,88Z" fill="#e0f3b2" stroke="#e0f3b2" stroke-width="1.51"/><path d="M116,104L120,196L248,88Z" fill="#d7f0b3" stroke="#d7f0b3" stroke-width="1.51"/><path d="M247,1128L130,1259L252,1260Z" fill="#858697" stroke="#858697" stroke-width="1.51"/><path d="M248,88L120,196L258,196Z" fill="#d1edb3" stroke="#d1edb3" stroke-width="1.51"/><path d="M120,196L227,352L258,196Z" fill="#c2e6b5" stroke="#c2e6b5" stroke-width="1.51"/><path d="M122,1114L247,1128L264,986Z" fill="#8f93a9" stroke="#8f93a9" stroke-width="1.51"/><path d="M120,983L122,1114L264,986Z" fill="#929aab" stroke="#929aab" stroke-width="1.51"/><path d="M248,861L120,983L264,986Z" fill="#90a2af" stroke="#90a2af" stroke-width="1.51"/><path d="M120,196L127,363L227,352Z" fill="#bce3b6" stroke="#bce3b6" stroke-width="1.51"/><path d="M235,626L102,742L241,740Z" fill="#96c3bb" stroke="#96c3bb" stroke-width="1.51"/><path d="M127,363L112,477L245,475Z" fill="#abdbb9" stroke="#abdbb9" stroke-width="1.51"/><path d="M135,-25L116,104L248,88Z" fill="#def2b3" stroke="#def2b3" stroke-width="1.51"/><path d="M99,-188L135,-25L233,-179Z" fill="#edf8ba" stroke="#edf8ba" stroke-width="1.51"/><path d="M102,742L119,847L241,740Z" fill="#97bbb8" stroke="#97bbb8" stroke-width="1.51"/><path d="M111,603L102,742L235,626Z" fill="#9bc9bb" stroke="#9bc9bb" stroke-width="1.51"/><path d="M-7,718L102,742L111,603Z" fill="#9fc8bc" stroke="#9fc8bc" stroke-width="1.51"/><path d="M-8,588L111,603L112,477Z" fill="#a5d5bc" stroke="#a5d5bc" stroke-width="1.51"/><path d="M119,847L-22,869L120,983Z" fill="#9aabb2" stroke="#9aabb2" stroke-width="1.51"/><path d="M120,983L-25,1012L122,1114Z" fill="#989aab" stroke="#989aab" stroke-width="1.51"/><path d="M-25,1012L-6,1118L122,1114Z" fill="#9896ab" stroke="#9896ab" stroke-width="1.51"/><path d="M-6,1118L5,1263L122,1114Z" fill="#948da2" stroke="#948da2" stroke-width="1.51"/><path d="M-18,348L112,477L127,363Z" fill="#b5dfb8" stroke="#b5dfb8" stroke-width="1.51"/><path d="M120,196L-4,206L127,363Z" fill="#c9e9b5" stroke="#c9e9b5" stroke-width="1.51"/><path d="M-4,206L-18,348L127,363Z" fill="#c2e6b9" stroke="#c2e6b9" stroke-width="1.51"/><path d="M122,1114L5,1263L130,1259Z" fill="#8e8a98" stroke="#8e8a98" stroke-width="1.51"/><path d="M99,-188L-25,-28L135,-25Z" fill="#eff9b6" stroke="#eff9b6" stroke-width="1.51"/><path d="M-3,104L116,104L135,-25Z" fill="#e3f4b2" stroke="#e3f4b2" stroke-width="1.51"/><path d="M-25,-28L-3,104L135,-25Z" fill="#e9f6b4" stroke="#e9f6b4" stroke-width="1.51"/><path d="M-32,-189L-25,-28L99,-188Z" fill="#f3fbbf" stroke="#f3fbbf" stroke-width="1.51"/><path d="M-26,494L-8,588L112,477Z" fill="#a9d8bf" stroke="#a9d8bf" stroke-width="1.51"/><path d="M116,104L-3,104L120,196Z" fill="#dcf1b3" stroke="#dcf1b3" stroke-width="1.51"/><path d="M-3,104L-4,206L120,196Z" fill="#d9f0b6" stroke="#d9f0b6" stroke-width="1.51"/><path d="M-8,588L-7,718L111,603Z" fill="#a2cebe" stroke="#a2cebe" stroke-width="1.51"/><path d="M-18,348L-26,494L112,477Z" fill="#b2ddbd" stroke="#b2ddbd" stroke-width="1.51"/><path d="M102,742L-22,869L119,847Z" fill="#9cb7b7" stroke="#9cb7b7" stroke-width="1.51"/><path d="M-22,869L-25,1012L120,983Z" fill="#9aa5b2" stroke="#9aa5b2" stroke-width="1.51"/><path d="M-7,718L-22,869L102,742Z" fill="#9ebdbc" stroke="#9ebdbc" stroke-width="1.51"/><path d="M-32,-189L-138,-158L-25,-28Z" fill="#f6fbc3" stroke="#f6fbc3" stroke-width="1.51"/><path d="M-138,-158L-157,-60L-25,-28Z" fill="#f5fbc2" stroke="#f5fbc2" stroke-width="1.51"/><path d="M-129,730L-142,869L-22,869Z" fill="#9fb8c1" stroke="#9fb8c1" stroke-width="1.51"/><path d="M-131,984L-25,1012L-22,869Z" fill="#9ba6b7" stroke="#9ba6b7" stroke-width="1.51"/><path d="M-130,462L-26,494L-18,348Z" fill="#b5dec2" stroke="#b5dec2" stroke-width="1.51"/><path d="M-149,199L-147,363L-18,348Z" fill="#c6e8c3" stroke="#c6e8c3" stroke-width="1.51"/><path d="M-8,588L-155,614L-7,718Z" fill="#a5cec4" stroke="#a5cec4" stroke-width="1.51"/><path d="M-155,614L-129,730L-7,718Z" fill="#a3cac7" stroke="#a3cac7" stroke-width="1.51"/><path d="M-129,730L-22,869L-7,718Z" fill="#9fbfc1" stroke="#9fbfc1" stroke-width="1.51"/><path d="M-25,1012L-133,1120L-6,1118Z" fill="#9a96b1" stroke="#9a96b1" stroke-width="1.51"/><path d="M-149,199L-18,348L-4,206Z" fill="#ceebbe" stroke="#ceebbe" stroke-width="1.51"/><path d="M-25,-28L-162,100L-3,104Z" fill="#e8f6bc" stroke="#e8f6bc" stroke-width="1.51"/><path d="M-149,199L-4,206L-3,104Z" fill="#dbf1bc" stroke="#dbf1bc" stroke-width="1.51"/><path d="M-6,1118L-133,1120L5,1263Z" fill="#958ea7" stroke="#958ea7" stroke-width="1.51"/><path d="M-133,1120L-161,1251L5,1263Z" fill="#928ba3" stroke="#928ba3" stroke-width="1.51"/><path d="M-142,869L-131,984L-22,869Z" fill="#9dacbc" stroke="#9dacbc" stroke-width="1.51"/><path d="M-147,363L-130,462L-18,348Z" fill="#bae2c4" stroke="#bae2c4" stroke-width="1.51"/><path d="M-26,494L-155,614L-8,588Z" fill="#a8d6c5" stroke="#a8d6c5" stroke-width="1.51"/><path d="M-162,100L-149,199L-3,104Z" fill="#e2f3bf" stroke="#e2f3bf" stroke-width="1.51"/><path d="M-130,462L-155,614L-26,494Z" fill="#acdac7" stroke="#acdac7" stroke-width="1.51"/><path d="M-157,-60L-162,100L-25,-28Z" fill="#eff9bf" stroke="#eff9bf" stroke-width="1.51"/><path d="M-131,984L-133,1120L-25,1012Z" fill="#9c9cb5" stroke="#9c9cb5" stroke-width="1.51"/><path d="M-161,1251L-133,1120L-131,984Z" fill="#9c93b5" stroke="#9c93b5" stroke-width="1.51"/><path d="M-155,614L-142,869L-129,730Z" fill="#a2c5c9" stroke="#a2c5c9" stroke-width="1.51"/><path d="M-147,363L-155,614L-130,462Z" fill="#b2ddc9" stroke="#b2ddc9" stroke-width="1.51"/><path d="M-142,869L-161,1251L-131,984Z" fill="#9c9db8" stroke="#9c9db8" stroke-width="1.51"/><path d="M-155,614L-161,1251L-142,869Z" fill="#9eadbf" stroke="#9eadbf" stroke-width="1.51"/><path d="M-149,199L-162,100L-147,363Z" fill="#d6efc4" stroke="#d6efc4" stroke-width="1.51"/><path d="M-162,100L-155,614L-147,363Z" fill="#bfe5c7" stroke="#bfe5c7" stroke-width="1.51"/></svg>